<?xml version="1.0" encoding="UTF-8"?>
<svg width="354px" height="103px" viewBox="0 0 354 103" version="1.1" xmlns="http://www.w3.org/2000/svg" xmlns:xlink="http://www.w3.org/1999/xlink">
    <!-- Generator: Sketch 52.3 (67297) - http://www.bohemiancoding.com/sketch -->
    <title>logo_argentina_wines_online</title>
    <desc>Created with Sketch.</desc>
    <g id="UiKit" stroke="none" stroke-width="1" fill="none" fill-rule="evenodd">
        <g id="Logo-WIO" transform="translate(-1.000000, 0.000000)">
            <g id="Logo" transform="translate(1.256637, 0.000000)">
                <polyline id="Fill-1" fill="#7A1E47" points="114.538169 62.2041699 111.644319 62.4398536 115.368341 75.9916689 116.240969 80.1367949 116.368338 80.1367949 117.454006 75.9916689 122.369078 60.2926829 124.539655 60.2926829 129.454728 75.9916689 130.561624 80.2446891 130.688992 80.2446891 131.646533 75.9916689 135.263656 62.4398536 132.369806 62.2041699 132.369806 60.2926829 140.115044 60.2926829 140.115044 62.2041699 137.880783 62.3755763 131.773902 83.5304878 129.604083 83.5304878 124.475971 67.6379045 123.475216 63.6213332 123.347847 63.6213332 122.34785 67.6379045 117.304651 83.5304878 115.134073 83.5304878 109.048421 62.3755763 106.814159 62.2041699 106.814159 60.2926829 114.538169 60.2926829 114.538169 62.2041699"></polyline>
                <path d="M143.256637,81.6526816 L146.708868,81.375192 L146.708868,62.6199376 L143.256637,62.342448 L143.256637,60.443355 L149.229185,60.443355 L149.229185,81.375192 L152.681416,81.6526816 L152.681416,83.5304878 L143.256637,83.5304878 L143.256637,81.6526816 Z M146.708868,53.8284596 L149.229185,53.8284596 L149.229185,50.2439024 L146.708868,50.2439024 L146.708868,53.8284596 Z" id="Fill-2" fill="#7A1E47"></path>
                <path d="M156.451327,81.6747691 L159.915613,81.4005435 L159.915613,62.865896 L156.451327,62.5916704 L156.451327,60.7149153 L162.168345,60.7149153 L162.402326,64.6998269 C163.139102,63.2941388 164.13409,62.2085058 165.388048,61.4421767 C166.642006,60.6758475 168.126159,60.2926829 169.840507,60.2926829 C172.334035,60.2926829 174.232388,61.0484938 175.536322,62.5601157 C176.8395,64.0709862 177.491467,66.4293266 177.491467,69.6343857 L177.491467,81.4005435 L180.955752,81.6747691 L180.955752,83.5304878 L171.476861,83.5304878 L171.476861,81.6747691 L174.941147,81.4005435 L174.941147,69.6554222 C174.941147,67.0408874 174.448953,65.1919304 173.463809,64.1093027 C172.479422,63.0274262 171.080078,62.4857367 169.266534,62.4857367 C167.481007,62.4857367 166.025628,62.9530472 164.898884,63.8884196 C163.772896,64.8230406 162.961913,66.063442 162.465933,67.6103751 L162.465933,81.4005435 L165.930218,81.6747691 L165.930218,83.5304878 L156.451327,83.5304878 L156.451327,81.6747691" id="Fill-3" fill="#7A1E47"></path>
                <path d="M194.801122,84.1585366 C191.897972,84.1585366 189.493005,83.0999858 187.586221,80.9813697 C185.678676,78.8635109 184.725664,76.1679165 184.725664,72.8953438 L184.725664,71.7262433 C184.725664,68.439284 185.675633,65.7118877 187.575573,63.5448115 C189.475512,61.3769782 191.770194,60.2926829 194.45962,60.2926829 C197.292035,60.2926829 199.519026,61.1854093 201.141352,62.9708619 C202.763678,64.7555574 203.575221,67.136161 203.575221,70.1111583 L203.575221,72.2789916 L187.266015,72.2789916 L187.266015,72.8953438 C187.266015,75.4735738 187.959668,77.6376212 189.346973,79.387486 C190.734279,81.1373508 192.552835,82.0119046 194.801122,82.0119046 C196.380856,82.0119046 197.733174,81.7923196 198.857318,81.3531497 C199.981461,80.9139799 200.942079,80.2839983 201.739171,79.4616905 L202.827567,81.2047406 C201.95974,82.1110964 200.863739,82.8304263 199.540322,83.3619733 C198.216906,83.8927631 196.637172,84.1585366 194.801122,84.1585366 Z M194.45962,62.4605163 C192.580977,62.4605163 190.998201,63.1798462 189.709772,64.617749 C188.422103,66.0556517 187.671406,67.8585197 187.457682,70.0263531 L187.500275,70.1323596 L201.03487,70.1323596 L201.03487,69.4948061 C201.03487,67.4973404 200.443896,65.8254661 199.262709,64.4799405 C198.081522,63.1336577 196.480492,62.4605163 194.45962,62.4605163 Z" id="Fill-4" fill="#7A1E47"></path>
                <path d="M224.464023,67.8161171 L222.354666,67.8161171 L222.053219,64.5647457 C221.407373,63.898419 220.592777,63.3812586 219.609433,63.0132646 C218.626089,62.6445133 217.496241,62.4605163 216.219121,62.4605163 C214.339108,62.4605163 212.928523,62.8610695 211.988901,63.6614187 C211.048511,64.4617679 210.578316,65.4006828 210.578316,66.4774062 C210.578316,67.539743 210.984079,68.4180827 211.79484,69.1124254 C212.6056,69.8067681 214.224052,70.4155484 216.64943,70.9402807 C219.419207,71.549061 221.493281,72.3819694 222.870883,73.4374914 C224.249252,74.4930135 224.938053,75.9271303 224.938053,77.740599 C224.938053,79.6532595 224.151838,81.2009547 222.580175,82.3844417 C221.009279,83.5671716 218.931371,84.1585366 216.347983,84.1585366 C214.625981,84.1585366 213.058153,83.9215363 211.6445,83.4467785 C210.230847,82.9720207 209.006653,82.3026653 207.973451,81.4387122 L207.973451,76.80547 L210.062099,76.80547 L210.427976,80.0780427 C211.116777,80.758756 211.988901,81.2509292 213.043579,81.5553193 C214.098258,81.8597095 215.199726,82.0119046 216.347983,82.0119046 C218.214189,82.0119046 219.684603,81.6083226 220.761526,80.8011587 C221.837681,79.9932375 222.376143,79.015706 222.376143,77.8678068 C222.376143,76.7910834 221.927425,75.8491398 221.030756,75.0419758 C220.133321,74.2340547 218.514868,73.5752999 216.176166,73.0649542 C213.405622,72.4705605 211.349957,71.6800548 210.008406,70.6957085 C208.666088,69.7113623 207.994928,68.3332775 207.994928,66.5622114 C207.994928,64.8055319 208.748928,63.3214406 210.255392,62.1099376 C211.762624,60.8984345 213.750022,60.2926829 216.219121,60.2926829 C217.92655,60.2926829 219.487474,60.5516417 220.901127,61.0688021 C222.31478,61.5859625 223.466872,62.2833339 224.356638,63.1616737 L224.464023,67.8161171" id="Fill-5" fill="#7A1E47"></path>
                <path d="M228.707965,71.8754096 C228.707965,68.4892585 229.654372,65.7118877 231.546416,63.5448115 C233.43846,61.3769782 235.944974,60.2926829 239.064414,60.2926829 C242.199293,60.2926829 244.711983,61.3769782 246.604026,63.5448115 C248.496842,65.7118877 249.442478,68.4892585 249.442478,71.8754096 L249.442478,72.5765671 C249.442478,75.9771048 248.49993,78.7575044 246.614834,80.9177658 C244.73051,83.0780273 242.227855,84.1585366 239.107643,84.1585366 C235.958869,84.1585366 233.43846,83.0780273 231.546416,80.9177658 C229.654372,78.7575044 228.707965,75.9771048 228.707965,72.5765671 L228.707965,71.8754096 Z M231.307884,72.5765671 C231.307884,75.2403595 231.994146,77.4786114 233.366669,79.2920801 C234.738419,81.1055488 236.652078,82.0119046 239.107643,82.0119046 C241.519979,82.0119046 243.412023,81.1055488 244.784546,79.2920801 C246.156297,77.4786114 246.842558,75.2403595 246.842558,72.5765671 L246.842558,71.8754096 C246.842558,69.2540198 246.153209,67.0301545 244.773739,65.2022992 C243.394268,63.3744439 241.491417,62.4605163 239.064414,62.4605163 C236.638183,62.4605163 234.738419,63.3744439 233.366669,65.2022992 C231.994146,67.0301545 231.307884,69.2540198 231.307884,71.8754096 L231.307884,72.5765671 Z" id="Fill-6" fill="#999999"></path>
                <path d="M252.584071,81.6747691 L256.048356,81.4005435 L256.048356,62.865896 L252.584071,62.5916704 L252.584071,60.7149153 L258.301088,60.7149153 L258.534312,64.6998269 C259.271088,63.2941388 260.266834,62.2085058 261.520792,61.4421767 C262.774749,60.6758475 264.258902,60.2926829 265.97325,60.2926829 C268.466779,60.2926829 270.365131,61.0484938 271.669066,62.5601157 C272.972243,64.0709862 273.62421,66.4293266 273.62421,69.6343857 L273.62421,81.4005435 L277.088496,81.6747691 L277.088496,83.5304878 L267.609605,83.5304878 L267.609605,81.6747691 L271.07389,81.4005435 L271.07389,69.6554222 C271.07389,67.0408874 270.581697,65.1919304 269.596552,64.1093027 C268.612165,63.0274262 267.212821,62.4857367 265.399277,62.4857367 C263.61375,62.4857367 262.158372,62.9530472 261.031627,63.8884196 C259.905639,64.8230406 259.094656,66.063442 258.598676,67.6103751 L258.598676,81.4005435 L262.062962,81.6747691 L262.062962,83.5304878 L252.584071,83.5304878 L252.584071,81.6747691" id="Fill-7" fill="#999999"></path>
                <polyline id="Fill-8" fill="#999999" points="280.230088 52.1429955 280.230088 50.2439024 286.20236 50.2439024 286.20236 81.375192 289.654867 81.6526816 289.654867 83.5304878 280.230088 83.5304878 280.230088 81.6526816 283.682596 81.375192 283.682596 52.4204851 280.230088 52.1429955"></polyline>
                <path d="M293.424779,81.6526816 L296.876531,81.375192 L296.876531,62.6199376 L293.424779,62.342448 L293.424779,60.443355 L299.39705,60.443355 L299.39705,81.375192 L302.849558,81.6526816 L302.849558,83.5304878 L293.424779,83.5304878 L293.424779,81.6526816 Z M296.876531,53.8284596 L299.39705,53.8284596 L299.39705,50.2439024 L296.876531,50.2439024 L296.876531,53.8284596 Z" id="Fill-9" fill="#999999"></path>
                <path d="M305.99115,81.6747691 L309.455436,81.4005435 L309.455436,62.865896 L305.99115,62.5916704 L305.99115,60.7149153 L311.708168,60.7149153 L311.942149,64.6998269 C312.678925,63.2941388 313.673913,62.2085058 314.927871,61.4421767 C316.181829,60.6758475 317.665982,60.2926829 319.38033,60.2926829 C321.873858,60.2926829 323.772968,61.0484938 325.076145,62.5601157 C326.38008,64.0709862 327.03129,66.4293266 327.03129,69.6343857 L327.03129,81.4005435 L330.495575,81.6747691 L330.495575,83.5304878 L321.016684,83.5304878 L321.016684,81.6747691 L324.48097,81.4005435 L324.48097,69.6554222 C324.48097,67.0408874 323.988776,65.1919304 323.004389,64.1093027 C322.019245,63.0274262 320.619901,62.4857367 318.806357,62.4857367 C317.021587,62.4857367 315.565451,62.9530472 314.439464,63.8884196 C313.312719,64.8230406 312.501736,66.063442 312.005756,67.6103751 L312.005756,81.4005435 L315.470041,81.6747691 L315.470041,83.5304878 L305.99115,83.5304878 L305.99115,81.6747691" id="Fill-10" fill="#999999"></path>
                <path d="M344.341706,84.1585366 C341.437795,84.1585366 339.032828,83.0999858 337.126044,80.9813697 C335.219259,78.8635109 334.265487,76.1679165 334.265487,72.8953438 L334.265487,71.7262433 C334.265487,68.439284 335.215456,65.7118877 337.115396,63.5448115 C339.015335,61.3769782 341.310017,60.2926829 343.999443,60.2926829 C346.831858,60.2926829 349.058849,61.1854093 350.681175,62.9708619 C352.303501,64.7555574 353.115044,67.136161 353.115044,70.1111583 L353.115044,72.2789916 L336.805838,72.2789916 L336.805838,72.8953438 C336.805838,75.4735738 337.499491,77.6376212 338.887557,79.387486 C340.274862,81.1373508 342.092658,82.0119046 344.341706,82.0119046 C345.920679,82.0119046 347.272997,81.7923196 348.397141,81.3531497 C349.521284,80.9139799 350.481902,80.2839983 351.278994,79.4616905 L352.368151,81.2047406 C351.499563,82.1110964 350.403562,82.8304263 349.080145,83.3619733 C347.756729,83.8927631 346.176995,84.1585366 344.341706,84.1585366 Z M343.999443,62.4605163 C342.121561,62.4605163 340.538024,63.1798462 339.250355,64.617749 C337.961926,66.0556517 337.211229,67.8585197 336.998266,70.0263531 L337.040858,70.1323596 L350.574693,70.1323596 L350.574693,69.4948061 C350.574693,67.4973404 349.983719,65.8254661 348.802532,64.4799405 C347.621345,63.1336577 346.020315,62.4605163 343.999443,62.4605163 Z" id="Fill-11" fill="#999999"></path>
                <path d="M47.1238928,60.655303 C47.1238928,60.655303 -13.788949,60.655303 19.9648175,0 C-13.788949,50.7068182 1.36791007,82.005303 20.7458876,95.6212121 C30.2963483,102.331061 40.8722957,103 47.1238928,103 C54.051051,103 66.2878161,101.653788 76.5548271,93.3136364 C94.3554832,78.8560606 106.239287,48.0060606 74.2829682,0 C106.239287,60.655303 47.1238928,60.655303 47.1238928,60.655303" id="Fill-12" fill="#C2C2C2"></path>
                <path d="M6.28318604,50.9376679 C6.28318604,50.9376679 6.2680747,42.0792683 14.5521094,42.0792683 C31.3294709,42.0792683 49.9693045,59.5026278 50.2654867,59.7809417 C47.9519411,60.4706763 45.4759486,61.034867 42.8367537,61.460657 C22.8754336,64.6794181 11.4467298,56.2642032 7.06519771,51.7771474 L6.28318604,50.9376679" id="Fill-13" fill="#CC99B2"></path>
                <path d="M58.7477876,5.02439024 C59.9617929,5.02439024 60.9469027,6.00907703 60.9469027,7.22256098 C60.9469027,8.43604492 59.9617929,9.42073171 58.7477876,9.42073171 C57.5345636,9.42073171 56.5486726,8.43604492 56.5486726,7.22256098 C56.5486726,6.00907703 57.5345636,5.02439024 58.7477876,5.02439024" id="Fill-14" fill="#993366"></path>
                <path d="M86.7079646,59.7381521 C86.2257596,62.2761116 85.5752019,64.9041717 84.7547678,67.6291467 C80.5147157,81.7219389 60.6917486,95.4634146 47.2128623,95.4634146 C32.4724729,95.4634146 5.65486726,87.6594921 5.65486726,50.8719512 C9.36091348,55.0279356 21.0397202,64.844357 42.5088879,61.4069059 C45.1697758,60.9806317 47.6661198,60.4157994 49.9986816,59.7260378 L49.9986816,59.7267949 C49.9986816,59.7267949 62.1238898,74.8546083 86.7079646,59.7381521" id="Fill-15" fill="#7A1E47"></path>
                <path d="M50.2654867,59.8279937 C77.932812,51.5724938 82.236064,25.6202385 64.2877095,8.79268293 C76.0902886,12.3378034 92.7213674,28.8935917 86.6844203,59.8401398 C62.2947915,74.996099 50.2654867,59.8287529 50.2654867,59.8287529 L50.2654867,59.8279937" id="Fill-16" fill="#993366"></path>
                <path d="M9.42818296,50.9625723 C9.39279907,50.28625 9.63446356,49.6243498 10.0967128,49.132479 C10.5597149,48.6413673 11.201895,48.3627923 11.874189,48.3627923 C11.874189,48.3597561 11.874189,48.3597561 11.874189,48.3597561 C12.5494945,48.3597561 13.1939332,48.6444035 13.6524181,49.1438649 C14.1109031,49.6433263 14.3420277,50.3128171 14.2900812,50.9921756 C13.9761432,56.2630872 14.490339,68.9287598 23.8761062,84.1585366 C12.1422032,76.0836579 9.86859957,57.7614714 9.42818296,50.9625723 Z" id="Fill-17" fill="#FFFFFF"></path>
                <path d="M9.42818296,50.9625723 C9.39279907,50.28625 9.63446356,49.6243498 10.0967128,49.132479 C10.5597149,48.6413673 11.201895,48.3627923 11.874189,48.3627923 C11.874189,48.3597561 11.874189,48.3597561 11.874189,48.3597561 C12.5494945,48.3597561 13.1939332,48.6444035 13.6524181,49.1438649 C14.1109031,49.6433263 14.3420277,50.3128171 14.2900812,50.9921756 C13.9761432,56.2630872 14.490339,68.9287598 23.8761062,84.1585366 C12.1422032,76.0836579 9.86859957,57.7614714 9.42818296,50.9625723 Z" id="Stroke-18" stroke="#FFFFFF" stroke-width="0.5" stroke-linecap="round" stroke-linejoin="round"></path>
                <path d="M122.426753,46.028868 C122.257623,45.2497201 122.138104,44.5765787 122.067446,44.010201 C121.997538,43.4430661 121.962209,42.8698737 121.962209,42.2883522 C121.118062,43.4930406 119.993534,44.4917734 118.586371,45.285308 C117.17996,46.0788425 115.597653,46.4756098 113.839451,46.4756098 C111.603174,46.4756098 109.873536,45.8940883 108.649785,44.7325597 C107.426035,43.5710311 106.814159,41.9983487 106.814159,40.0145123 C106.814159,37.8898388 107.721449,36.2035779 109.536028,34.956487 C111.350606,33.7101531 113.811638,33.0869862 116.919875,33.0869862 L121.962209,33.0869862 L121.962209,30.0476279 C121.962209,28.4045268 121.438281,27.1150332 120.390426,26.1799043 C119.342571,25.2447753 117.876776,24.7775894 115.991538,24.7775894 C114.725693,24.7775894 113.568842,24.9509858 112.520987,25.2977786 C111.473132,25.6453285 110.598165,26.1163004 109.894583,26.7114512 L109.683359,29.792455 L107.595165,29.792455 L107.616212,25.3719831 C108.670833,24.5504326 109.93292,23.8848631 111.403225,23.3745174 C112.872778,22.8649289 114.437796,22.6097561 116.097526,22.6097561 C118.614935,22.6097561 120.639987,23.2541243 122.173434,24.5436179 C123.706129,25.8331115 124.472852,27.6814109 124.472852,30.0900305 L124.472852,41.3963831 C124.472852,41.8635689 124.483376,42.3133395 124.504423,42.7456946 C124.525471,43.1780498 124.571324,43.5990471 124.641983,44.010201 L126.920354,44.1586101 L126.920354,46.028868 L122.426753,46.028868 Z M114.113817,44.2229712 C115.942678,44.2229712 117.552798,43.7974307 118.945679,42.9478642 C120.337808,42.0975405 121.343568,40.9996158 121.962209,39.653333 L121.962209,35.0420494 L116.87778,35.0420494 C114.585127,35.0420494 112.753259,35.5198359 111.382177,36.4761661 C110.010344,37.4324964 109.324803,38.6402135 109.324803,40.1000748 C109.324803,41.332022 109.750259,42.3277261 110.601172,43.0856727 C111.452084,43.8436193 112.623217,44.2229712 114.113817,44.2229712 Z" id="Fill-19" fill="#7A1E47"></path>
                <path d="M135.769204,23.0312508 L136.089871,26.8269567 L136.089871,27.1011912 C136.745676,25.6954577 137.639887,24.5955144 138.773265,23.8013613 C139.905881,23.006457 141.249482,22.6097561 142.802544,22.6097561 C143.130828,22.6097561 143.447686,22.6345499 143.753881,22.6833862 C144.060837,22.7329738 144.313715,22.7855667 144.513274,22.8419163 L144.171281,25.2033383 L142.268608,25.0771152 C140.657657,25.0771152 139.336145,25.5234037 138.302547,26.4159807 C137.269711,27.3085576 136.532406,28.5354752 136.089871,30.0952309 L136.089871,43.7175478 L139.574551,43.9917823 L139.574551,45.847561 L130.061947,45.847561 L130.061947,43.9917823 L133.546626,43.7175478 L133.546626,25.1823011 L130.061947,24.9080666 L130.061947,23.0312508 L135.769204,23.0312508" id="Fill-20" fill="#7A1E47"></path>
                <path d="M147.654867,34.7056784 C147.654867,31.0416679 148.451382,28.1095523 150.045953,25.9093314 C151.639753,23.7098665 153.851179,22.6097561 156.67869,22.6097561 C158.338031,22.6097561 159.777617,22.9666304 160.996678,23.6811351 C162.215738,24.3956399 163.221983,25.4035074 164.015413,26.7054938 L164.318444,23.0339224 L166.504425,23.0339224 L166.504425,45.6977098 C166.504425,48.6547765 165.688634,50.9888252 164.058593,52.7006122 C162.428553,54.4123992 160.156212,55.2682927 157.241571,55.2682927 C156.116581,55.2682927 154.915255,55.1344648 153.638364,54.8652969 C152.361474,54.596129 151.247279,54.2286694 150.295008,53.7621621 L150.987428,51.6186479 C151.925048,52.0571799 152.909704,52.3966642 153.941394,52.6371007 C154.973085,52.8775372 156.05875,52.9977554 157.198391,52.9977554 C159.419841,52.9977554 161.093832,52.3543232 162.218822,51.0667025 C163.344583,49.7790818 163.907464,47.9894176 163.907464,45.6977098 L163.907464,42.7905451 C163.113262,43.9647523 162.110873,44.8667673 160.898752,45.49659 C159.687402,46.1256566 158.266322,46.440946 156.63551,46.440946 C153.82265,46.440946 151.622018,45.4149323 150.035158,43.3636611 C148.448297,41.3123898 147.654867,38.5745892 147.654867,35.1510152 L147.654867,34.7056784 Z M150.251828,35.1510152 C150.251828,37.9099864 150.824733,40.1132316 151.972084,41.7615071 C153.118664,43.4097825 154.831979,44.2339202 157.112031,44.2339202 C158.799901,44.2339202 160.202476,43.8588998 161.321298,43.1088588 C162.439348,42.3588179 163.301403,41.3267555 163.907464,40.0104034 L163.907464,29.3578563 C163.329933,28.0135289 162.500262,26.9209793 161.418452,26.0794515 C160.336642,25.2371677 158.915562,24.8167818 157.155211,24.8167818 C154.875159,24.8167818 153.154904,25.7361868 151.993674,27.5749969 C150.832443,29.414563 150.251828,31.7909528 150.251828,34.7056784 L150.251828,35.1510152 Z" id="Fill-21" fill="#7A1E47"></path>
                <path d="M181.607193,46.4756098 C178.704043,46.4756098 176.298315,45.4163017 174.391531,43.2984429 C172.484746,41.1798269 171.530973,38.4849897 171.530973,35.2116598 L171.530973,34.0433165 C171.530973,30.7563572 172.480943,28.0289609 174.380882,25.8611275 C176.280822,23.6932942 178.575504,22.6097561 181.26569,22.6097561 C184.097345,22.6097561 186.324336,23.5024824 187.946662,25.2871779 C189.568988,27.0726306 190.380531,29.452477 190.380531,32.4282314 L190.380531,34.5953076 L174.071325,34.5953076 L174.071325,35.2116598 C174.071325,37.790647 174.764977,39.9546944 176.153043,41.7045592 C177.540349,43.4536667 179.358145,44.3289777 181.607193,44.3289777 C183.186926,44.3289777 184.538484,44.1093928 185.662627,43.6702229 C186.786771,43.231053 187.747389,42.6003143 188.544481,41.7787637 L189.633637,43.5210566 C188.76505,44.4281695 187.669809,45.1467423 186.345632,45.6782893 C185.022215,46.2098363 183.442482,46.4756098 181.607193,46.4756098 Z M181.26569,24.7775894 C179.387047,24.7775894 177.803511,25.4961622 176.515842,26.9340649 C175.227413,28.3727249 174.476716,30.1748357 174.263752,32.342669 L174.306345,32.4494327 L187.84018,32.4494327 L187.84018,31.8118792 C187.84018,29.8136563 187.249967,28.1417821 186.068779,26.7962565 C184.886832,25.4499737 183.286562,24.7775894 181.26569,24.7775894 Z" id="Fill-22" fill="#7A1E47"></path>
                <path d="M194.150442,43.9917823 L197.614728,43.7175478 L197.614728,25.1823011 L194.150442,24.9080666 L194.150442,23.0312508 L199.86746,23.0312508 L200.101441,27.0170426 C200.838217,25.611309 201.833205,24.5248896 203.087163,23.7585357 C204.341121,22.9929331 205.825274,22.6097561 207.539622,22.6097561 C210.03315,22.6097561 211.931503,23.3655915 213.235437,24.8765108 C214.538615,26.3874302 215.190582,28.7458469 215.190582,31.9510096 L215.190582,43.7175478 L218.654867,43.9917823 L218.654867,45.847561 L209.175976,45.847561 L209.175976,43.9917823 L212.640262,43.7175478 L212.640262,31.9720467 C212.640262,29.3574274 212.148068,27.509162 211.162924,26.4264992 C210.178537,25.3438365 208.779193,24.8028808 206.965649,24.8028808 C205.180122,24.8028808 203.724743,25.2702064 202.597999,26.2048577 C201.472011,27.1395089 200.661028,28.3807018 200.165048,29.9269336 L200.165048,43.7175478 L203.629333,43.9917823 L203.629333,45.847561 L194.150442,45.847561 L194.150442,43.9917823" id="Fill-23" fill="#7A1E47"></path>
                <path d="M228.380301,16.9573171 L228.380301,22.88201 L233.484171,22.88201 L233.484171,24.9785923 L228.380301,24.9785923 L228.380301,40.0585896 C228.380301,41.5698664 228.65536,42.6429263 229.205477,43.2777693 C229.756359,43.9118502 230.489086,44.2296527 231.403656,44.2296527 C231.818537,44.2296527 232.221957,44.2113619 232.615444,44.1755424 C233.008167,44.1404851 233.462778,44.0795158 233.976985,43.9941587 L234.362832,45.8979255 C233.934198,46.0831198 233.412351,46.2256356 232.797288,46.3254728 C232.18299,46.4253101 231.567928,46.4756098 230.95363,46.4756098 C229.323906,46.4756098 228.054814,45.9619433 227.14712,44.9353725 C226.239426,43.9088017 225.785578,42.2832074 225.785578,40.0585896 L225.785578,24.9785923 L221.79646,24.9785923 L221.79646,22.88201 L225.785578,22.88201 L225.785578,16.9573171 L228.380301,16.9573171" id="Fill-24" fill="#7A1E47"></path>
                <path d="M237.504425,44.5978036 L240.956656,44.320314 L240.956656,25.5650595 L237.504425,25.28757 L237.504425,23.3884769 L243.476973,23.3884769 L243.476973,44.320314 L246.929204,44.5978036 L246.929204,46.4756098 L237.504425,46.4756098 L237.504425,44.5978036 Z M240.956656,16.7735815 L243.476973,16.7735815 L243.476973,13.1890244 L240.956656,13.1890244 L240.956656,16.7735815 Z" id="Fill-25" fill="#7A1E47"></path>
                <path d="M250.699115,43.9917823 L254.16275,43.7175478 L254.16275,25.1823011 L250.699115,24.9080666 L250.699115,23.0312508 L256.416309,23.0312508 L256.649541,27.0170426 C257.386339,25.611309 258.382115,24.5248896 259.636112,23.7585357 C260.890109,22.9929331 262.374307,22.6097561 264.088708,22.6097561 C266.582314,22.6097561 268.480725,23.3655915 269.783943,24.8765108 C271.087917,26.3874302 271.739905,28.7458469 271.739905,31.9510096 L271.739905,43.7175478 L275.20354,43.9917823 L275.20354,45.847561 L265.725113,45.847561 L265.725113,43.9917823 L269.189506,43.7175478 L269.189506,31.9720467 C269.189506,29.3574274 268.69654,27.509162 267.712122,26.4264992 C266.726947,25.3438365 265.328317,24.8028808 263.514717,24.8028808 C261.729135,24.8028808 260.273712,25.2702064 259.146932,26.2048577 C258.02091,27.1395089 257.209144,28.3807018 256.713149,29.9269336 L256.713149,43.7175478 L260.177542,43.9917823 L260.177542,45.847561 L250.699115,45.847561 L250.699115,43.9917823" id="Fill-26" fill="#7A1E47"></path>
                <path d="M294.585877,46.028868 C294.416741,45.2497201 294.297218,44.5765787 294.227308,44.010201 C294.156646,43.4430661 294.121316,42.8698737 294.121316,42.2883522 C293.277888,43.4930406 292.152567,44.4917734 290.746103,45.285308 C289.339639,46.0788425 287.757273,46.4756098 285.999005,46.4756098 C283.762645,46.4756098 282.032191,45.8940883 280.808394,44.7325597 C279.584598,43.5710311 278.973451,41.9983487 278.973451,40.0145123 C278.973451,37.8898388 279.880023,36.2035779 281.69467,34.956487 C283.509316,33.7101531 285.97044,33.0869862 289.078793,33.0869862 L294.121316,33.0869862 L294.121316,30.0476279 C294.121316,28.4045268 293.597368,27.1150332 292.549474,26.1799043 C291.501579,25.2447753 290.03573,24.7775894 288.151173,24.7775894 C286.885281,24.7775894 285.728387,24.9509858 284.680492,25.2977786 C283.632598,25.6453285 282.756847,26.1163004 282.053239,26.7114512 L281.842758,29.792455 L279.753734,29.792455 L279.774782,25.3719831 C280.829442,24.5504326 282.092328,23.8848631 283.561936,23.3745174 C285.031545,22.8649289 286.596621,22.6097561 288.256414,22.6097561 C290.773917,22.6097561 292.799796,23.2541243 294.332548,24.5436179 C295.866053,25.8331115 296.632053,27.6814109 296.632053,30.0900305 L296.632053,41.3963831 C296.632053,41.8635689 296.642577,42.3133395 296.663625,42.7456946 C296.684673,43.1780498 296.730528,43.5990471 296.80119,44.010201 L299.079646,44.1586101 L299.079646,46.028868 L294.585877,46.028868 Z M286.273382,44.2229712 C288.10156,44.2229712 289.711739,43.7974307 291.104672,42.9478642 C292.496854,42.0975405 293.502652,40.9996158 294.121316,39.653333 L294.121316,35.0420494 L289.036697,35.0420494 C286.743958,35.0420494 284.912022,35.5198359 283.540888,36.4761661 C282.169755,37.4324964 281.483437,38.6402135 281.483437,40.1000748 C281.483437,41.332022 281.908909,42.3277261 282.760605,43.0856727 C283.61155,43.8436193 284.781974,44.2229712 286.273382,44.2229712 Z" id="Fill-27" fill="#7A1E47"></path>
            </g>
        </g>
    </g>
</svg>